<svg version="1.1"
	 xmlns="http://www.w3.org/2000/svg" xmlns:xlink="http://www.w3.org/1999/xlink" xmlns:a="http://ns.adobe.com/AdobeSVGViewerExtensions/3.0/"
	 x="0px" y="0px" width="300px" height="190px" viewBox="0 0 300 190" overflow="visible" enable-background="new 0 0 300 190"
	 xml:space="preserve">
<defs>
</defs>
<path d="M121.215,85.042c0,0,28.411-2.118,28.411-35.442c0-33.326-23.246-49.6-52.7-49.6H42.707h-1.588H0v186.266h41.119h1.588
	h54.219c0,0,59.165,1.863,59.165-54.987C156.084,131.279,158.67,85.042,121.215,85.042z M42.707,33.103h47.235h6.977
	c0,0,13.176,0,13.176,19.372c0,19.387-7.751,22.196-16.534,22.196h-50.86V33.103H42.707z M94.181,153.155
	c-1.429,0.037-2.646,0-3.459,0H42.707v-49.773h54.219c0,0,19.639-0.258,19.639,25.573
	C116.558,150.753,101.895,152.989,94.181,153.155z"/>
<path d="M235.005,47.387c-71.624,0-71.566,71.567-71.566,71.567s-4.904,71.2,71.566,71.2c0,0,63.74,3.637,63.74-49.537H265.96
	c0,0,1.093,20.034-29.862,20.034c0,0-32.773,2.179-32.773-32.418h96.513C299.831,128.234,310.397,47.387,235.005,47.387z
	 M202.953,103.381c0,0,4.001-28.71,32.771-28.71c28.788,0,28.405,28.71,28.405,28.71H202.953z"/>
<rect x="194.938" y="10.973" width="76.831" height="22.939"/>
</svg>
