<svg xmlns="http://www.w3.org/2000/svg" xmlns:xlink="http://www.w3.org/1999/xlink" height="128px" id="Layer_1" style="enable-background:new 0 0 128 128;" version="1.1" viewBox="0 0 128 128" width="128px" xml:space="preserve">
  <style type="text/css">

	.st0{fill-rule:evenodd;clip-rule:evenodd;}

</style>
  <g>
    <path d="M60.999 88.414c-13.215-1.288-25.307-15.491-19.944-31.636c0.337-1.021 1.055-2.135 1.604-3.209 c0.521-1.021 1.397-2.219 1.146-2.979c-8.789 0-26.592 0-26.592 0v44.243c0.893 8.7 7.7 15.5 16.5 16.276h30.489h30.491 c8.823-0.909 15.401-8.252 16.275-16.046c0 0 0-36.793 0-44.474c-8.939 0-17.881 0-26.821 0 C94.62 67.8 82.6 90.5 61 88.414z"/>
    <path d="M63.979 82.913c8.424 0 18.672-6.019 18.569-18.568c-0.096-11.428-9.214-19.512-20.861-18.11 c-3.603 0.432-5.539 1.211-7.337 2.292c-4.13 2.479-8.016 7.103-8.711 13.296C44.235 74.3 53.4 82.9 64 82.913z M51.37 58.844c1.505-3.554 4.899-7.539 11.921-8.025c8.626-0.599 16.7 7.1 14.2 17.2 C75.97 74.3 69 79.1 61.7 78.097C54.745 77.1 47.3 68.5 51.4 58.844z"/>
    <path d="M105.702 22.162c-2.528-2.528-6.666-4.846-11.233-5.271H64.072h-0.084H42.207v23.844H38.31V16.891h-2.406v23.844h-3.9 V17.117c-0.863 0.165-1.708 0.391-2.521 0.672v22.945h-3.897V19.642c-1.24 0.766-2.336 1.63-3.228 2.5 c-5.185 5.186-5.602 14.099-5.272 25.447h29.115c1.182-0.275 2.599-1.733 3.668-2.522c3.922-2.888 8.968-4.464 14.089-4.52h0.145 c5.122 0.1 10.2 1.6 14.1 4.52c1.071 0.8 2.5 2.2 3.7 2.522h29.115C111.104 36.1 110.9 27.3 105.7 22.162z M101.704 37.627c0 1.337-1.082 2.42-2.416 2.42H89.217c-1.333 0-2.417-1.083-2.417-2.42V27.56c0-1.335 1.083-2.417 2.417-2.417 h10.071c1.334 0 2.4 1.1 2.4 2.417V37.627z"/>
  </g>
</svg>
