<svg version="1.1"
	 xmlns="http://www.w3.org/2000/svg" xmlns:xlink="http://www.w3.org/1999/xlink" xmlns:a="http://ns.adobe.com/AdobeSVGViewerExtensions/3.0/"
	 x="0px" y="0px" width="299px" height="254px" viewBox="0 0 299 254" overflow="visible" enable-background="new 0 0 299 254"
	 xml:space="preserve">
<defs>
</defs>
<path d="M201.694,147.698c5.721,0,10.529,2.791,14.683,8.474c4.127,5.621,6.236,12.573,6.236,20.788
	c0,8.251-2.078,15.198-6.236,20.818c-4.153,5.618-9.027,8.446-14.683,8.446c-6.006,0-11.172-2.791-15.324-8.446
	c-4.097-5.62-6.206-12.567-6.206-20.818c0-8.247,2.048-15.167,6.206-20.788C190.522,150.489,195.719,147.698,201.694,147.698
	 M275.233,71.568c16.01,17.357,24.097,38.422,24.097,63.121c0,16.028-1.886,30.45-5.521,43.28
	c-3.702,12.764-8.378,23.222-13.965,31.209c-5.686,8.06-12.572,15.137-20.853,21.111c-8.282,6.14-15.913,10.527-22.8,13.351
	c-6.883,2.827-14.809,5.004-23.775,6.528c-8.867,1.562-15.557,2.403-20.204,2.631c-4.479,0.195-9.351,0.291-14.614,0.291
	c-1.172,0-5.132,0.131-11.707,0.326c-6.414,0.261-11.936,0.389-16.222,0.389c-4.289,0-9.81-0.128-16.225-0.389
	c-6.529-0.195-10.522-0.326-11.708-0.326c-5.262,0-10.184-0.062-14.631-0.291c-4.662-0.228-11.355-1.069-20.171-2.631
	c-9.014-1.491-16.887-3.637-23.81-6.528c-6.886-2.793-14.499-7.211-22.751-13.351c-8.314-6.04-15.199-13.085-20.881-21.111
	c-5.587-7.987-10.282-18.445-13.969-31.209C1.904,165.139,0,150.717,0,134.688c0-24.698,8.058-45.763,24.116-63.121
	c-1.77-0.86-1.866-9.515-0.274-26.001C25.273,29.065,28.777,13.867,34.461,0c20.024,2.127,44.662,13.428,74.166,33.822
	c9.97-2.597,23.612-3.924,41.008-3.924c18.25,0,31.893,1.327,41.021,3.924c13.446-9.077,26.309-16.497,38.581-22.148
	c12.478-5.585,21.44-8.879,27.091-9.744L264.772,0c5.714,13.867,9.224,29.102,10.653,45.567
	C277.079,62.053,276.983,70.708,275.233,71.568 M150.362,238.771c36.008,0,63.16-4.318,81.608-12.961
	c18.384-8.672,27.734-26.506,27.734-53.398c0-15.591-5.878-28.645-17.602-39.052c-6.044-5.654-13.121-9.079-21.243-10.413
	c-7.922-1.299-20.17-1.299-36.701,0c-16.465,1.334-27.738,1.936-33.797,1.936c-8.249,0-17.198-0.44-28.301-1.299
	c-11.108-0.829-19.815-1.37-26.032-1.624c-6.369-0.198-13.14,0.598-20.497,2.285c-7.421,1.772-13.428,4.76-18.288,9.079
	c-11.186,9.99-16.872,22.981-16.872,39.057c0,26.894,9.113,44.723,27.317,53.364c18.187,8.708,45.257,12.987,81.278,12.987
	 M98.283,147.698c5.652,0,10.511,2.791,14.633,8.474c4.125,5.621,6.221,12.573,6.221,20.788c0,8.251-2.062,15.198-6.221,20.818
	c-4.122,5.618-9.013,8.446-14.633,8.446c-6.057,0-11.204-2.791-15.363-8.446c-4.122-5.62-6.217-12.567-6.217-20.818
	c0-8.247,2.063-15.167,6.217-20.788C87.079,150.489,92.226,147.698,98.283,147.698"/>
</svg>
