<svg version="1.1"
	 xmlns="http://www.w3.org/2000/svg" xmlns:xlink="http://www.w3.org/1999/xlink" xmlns:a="http://ns.adobe.com/AdobeSVGViewerExtensions/3.0/"
	 x="0px" y="0px" width="299px" height="300px" viewBox="0 0 299 300" overflow="visible" enable-background="new 0 0 299 300"
	 xml:space="preserve">
<defs>
</defs>
<path d="M140.185,227.885c-42.105-4.105-80.633-49.358-63.544-100.799c1.073-3.253,3.36-6.803,5.111-10.224
	c1.659-3.253,4.451-7.071,3.651-9.492c-28.003,0-84.728,0-84.728,0v140.966c2.846,27.579,24.528,49.248,52.587,51.859h97.144h97.151
	c28.112-2.896,49.072-26.293,51.854-51.129c0,0,0-117.227,0-141.7c-28.479,0-56.973,0-85.455,0
	C247.309,162.313,209.113,234.612,140.185,227.885z"/>
<path d="M149.68,210.359c26.838,0,59.49-19.177,59.163-59.161c-0.304-36.413-29.355-62.169-66.466-57.703
	c-11.479,1.377-17.647,3.858-23.375,7.302c-13.16,7.899-25.541,22.632-27.756,42.365C86.771,182.98,115.986,210.359,149.68,210.359z
	 M109.505,133.668c4.795-11.322,15.609-24.019,37.981-25.569c27.485-1.908,53.077,22.657,45.289,54.777
	c-4.889,20.152-27.256,35.396-50.396,32.139C120.258,191.903,96.489,164.414,109.505,133.668z"/>
<path d="M282.617,16.794C274.562,8.738,261.377,1.354,246.826,0h-96.85h-0.268H80.31v75.972H67.894V0h-7.667v75.972H47.802V0.721
	c-2.75,0.525-5.443,1.245-8.033,2.14v73.107H27.352V8.765c-3.949,2.441-7.442,5.193-10.284,8.033
	C0.547,33.321-0.782,61.721,0.27,97.875h92.767c3.765-0.876,8.279-5.521,11.687-8.034c12.496-9.201,28.572-14.223,44.889-14.401
	h0.463c16.318,0.178,32.398,5.2,44.887,14.401c3.417,2.514,7.923,7.158,11.688,8.034h92.768
	C299.827,61.353,299.143,33.318,282.617,16.794z M269.879,66.068c0,4.261-3.447,7.71-7.698,7.71h-32.09c-4.246,0-7.7-3.45-7.7-7.71
	V33.994c0-4.254,3.451-7.702,7.7-7.702h32.09c4.251,0,7.698,3.448,7.698,7.702V66.068z"/>
</svg>
