<svg version="1.1"
	 xmlns="http://www.w3.org/2000/svg" xmlns:xlink="http://www.w3.org/1999/xlink" xmlns:a="http://ns.adobe.com/AdobeSVGViewerExtensions/3.0/"
	 x="0px" y="0px" width="300px" height="300px" viewBox="0 0 300 300" overflow="visible" enable-background="new 0 0 300 300"
	 xml:space="preserve">
<defs>
</defs>
<path d="M300,37.505C300,16.792,283.208,0,262.494,0H37.506C16.792,0,0,16.792,0,37.505v224.989C0,283.208,16.792,300,37.506,300
	h224.988C283.208,300,300,283.208,300,262.494V37.505z M86,256H36V105h50V256z M60.906,84h-0.325
	C43.71,84,32.817,72.389,32.817,57.883c0-14.816,11.235-26.119,28.43-26.119c17.184,0,27.766,11.301,28.091,26.118
	C89.337,72.387,78.43,84,60.906,84z M267,256h-50v-81.051c0-20.313-7.29-34.181-25.465-34.181c-13.881,0-22.203,9.348-25.828,18.373
	c-1.333,3.23-1.707,7.747-1.707,12.267V256h-50.156c0,0,0.666-137,0-151H164v21.063c7-10.297,18.559-24.958,45.217-24.958
	c33.061,0,57.783,21.601,57.783,68.036V256z"/>
</svg>
