<svg version="1.1"
	 xmlns="http://www.w3.org/2000/svg" xmlns:xlink="http://www.w3.org/1999/xlink" xmlns:a="http://ns.adobe.com/AdobeSVGViewerExtensions/3.0/"
	 x="0px" y="0px" width="299px" height="299px" viewBox="0 0 299 299" overflow="visible" enable-background="new 0 0 299 299"
	 xml:space="preserve">
<defs>
</defs>
<path id="rect2995_1_" d="M29.946,0C13.356,0,0,13.356,0,29.946v239.565c0,16.589,13.356,29.945,29.946,29.945h239.565
	c16.589,0,29.945-13.356,29.945-29.945V29.946C299.456,13.356,286.1,0,269.511,0H29.946z M127.643,31.835h33.689v54.801h54.801
	v42.317h-54.801v60.753c0,13.747-0.158,21.689,1.291,25.585c1.449,3.875,5.073,7.897,9.021,10.218
	c5.259,3.149,11.235,4.717,17.985,4.717c12,0,23.935-3.901,35.805-11.697v37.376c-10.112,4.766-19.285,8.125-27.494,10.031
	c-8.219,1.906-17.089,2.883-26.633,2.883c-10.834,0-17.231-1.379-25.547-4.1c-8.33-2.754-15.429-6.665-21.299-11.697
	c-5.899-5.07-9.967-10.455-12.241-16.151c-2.277-5.711-3.406-13.984-3.406-24.817v-83.1H76.624V95.376
	c9.307-3.019,20.082-7.346,26.707-12.989c6.655-5.662,11.996-12.442,16.002-20.363C123.368,54.124,126.126,44.052,127.643,31.835z"
	/>
</svg>
