<svg version="1.1"
	 xmlns="http://www.w3.org/2000/svg" xmlns:xlink="http://www.w3.org/1999/xlink" xmlns:a="http://ns.adobe.com/AdobeSVGViewerExtensions/3.0/"
	 x="0px" y="0px" width="299px" height="243px" viewBox="0 0 299 243" overflow="visible" enable-background="new 0 0 299 243"
	 xml:space="preserve">
<defs>
</defs>
<path d="M298.528,28.719c-10.972,4.876-22.783,8.167-35.176,9.639c12.653-7.574,22.358-19.577,26.934-33.886
	c-11.836,7.027-24.939,12.12-38.894,14.874C240.22,7.444,224.301,0,206.688,0c-33.82,0-61.245,27.423-61.245,61.249
	c0,4.794,0.54,9.463,1.586,13.955C96.13,72.648,50.994,48.267,20.784,11.208c-5.273,9.042-8.285,19.565-8.285,30.796
	c0,21.251,10.805,39.999,27.24,50.976c-10.031-0.319-19.482-3.076-27.737-7.662c-0.006,0.254-0.006,0.515-0.006,0.773
	c0,29.674,21.109,54.423,49.131,60.057c-5.138,1.391-10.551,2.142-16.138,2.142c-3.948,0-7.789-0.378-11.523-1.101
	c7.794,24.329,30.414,42.048,57.208,42.532c-20.961,16.433-47.361,26.222-76.062,26.222c-4.941,0-9.817-0.287-14.611-0.859
	c27.11,17.387,59.304,27.52,93.887,27.52c112.66,0,174.259-93.324,174.259-174.258c0-2.656-0.053-5.302-0.172-7.936
	C279.94,51.792,290.326,40.999,298.528,28.719z"/>
</svg>
